<?xml version="1.0" encoding="utf-8"?>
<!-- Generator: Adobe Illustrator 27.7.0, SVG Export Plug-In . SVG Version: 6.00 Build 0)  -->
<svg version="1.1" id="Layer_2_00000076579558067461292100000008389078377210008498_"
	 xmlns="http://www.w3.org/2000/svg" xmlns:xlink="http://www.w3.org/1999/xlink" x="0px" y="0px" viewBox="0 0 272.6 186.8"
	 style="enable-background:new 0 0 272.6 186.8;" xml:space="preserve">
<g id="sketch">
	<g>
		<path d="M265.5,21.7C255.1,7.6,240.4,0.1,223.1,0h-0.2c-15.4,0-31.9,6.2-45.4,17.1c-10.1,8.1-18.9,17.8-26.7,28.1
			c-16.3,21.6-30.6,45.9-36.9,72.5c-4.5,19-2.4,46.3,18.2,60.7c8,5.6,17.5,8.4,27.7,8.4c9.6,0,19.9-2.4,30.2-7.4
			c11.7-5.6,22.3-13.2,30.8-22.1c4.9-5.1,19.7-20.6,14.2-34.3c-1.9-4.7-5.8-8.4-11.1-10.4c-5.6-2.2-12.5-1.8-18.8,1.1
			c-4.2,1.9-14.7,5.5-20.4-3.1c-2.8-4.3-3.3-9.8-3.5-13.6c-0.6-15.1,3.7-30.2,12.2-42.6c7.7-11.3,21.1-24.7,33.2-25.1
			c5.7-0.2,10.6,2.3,14.8,7.6c1,1.2,1.9,2.6,2.9,4c4.9,6.8,10.4,14.6,19.4,11.7c4.2-1.4,7-4,8.1-7.7C274.1,37.8,270.1,28,265.5,21.7
			L265.5,21.7z"/>
		<path d="M94.7,80c-4,8.9-12.3,16.2-20.3,22c-9.8,7.1-20.9,12-31.9,17c-3.4,1.5-6.8,3.1-10.1,4.7c-2.8,1.4-5.6,2.8-8.3,4.4
			c-5.7,3.3-11.6,6.9-15.9,12c-4,4.7-6.9,10.5-7.8,16.7c-0.3,1.9-0.4,3.8-0.3,5.7c0.4,9.6,6.2,19,15.1,22.6c7,2.8,15.2,1.9,22.1-1.2
			s12.8-8.1,18.2-13.4c12.9-12.7,23.7-27.6,30.8-44.2c6.3-14.5,11-30.1,10.9-45.9C97.1,79.1,95.2,78.7,94.7,80L94.7,80z"/>
		<path d="M117.4,43.6c0.5-2.2-0.2-4.5-1.8-6.2l-6.5-6.5l9-5.6c1.8-1.1,3.1-2.9,3.5-5c0.5-2.1,0.1-4.2-1-6c-1.7-2.7-4.9-4.2-8.4-3.6
			c-0.8,0.1-1.6,0.5-2.4,0.9l-6.5,4.1V7.8c0-2.1-1-4.2-2.7-5.3c-6.4-4.4-13.3,0.1-13.3,6.2v6.9L81,11.7c-3.7-2.3-8.7-1.2-11,2.5
			c-2.3,3.7-1.2,8.7,2.5,11l9.1,5.7l-6.2,6.2c-0.6,0.6-1.1,1.3-1.4,2.1c-1.3,3.3-0.6,6.7,1.7,9c2.3,2.3,5.7,3,9,1.7
			c0.8-0.3,1.5-0.8,2.1-1.5l8.6-8.6l8.3,8.3C107.9,52.3,115.7,50.8,117.4,43.6L117.4,43.6z"/>
	</g>
</g>
</svg>
