<svg width="347" height="141" viewBox="0 0 347 141" fill="none" xmlns="http://www.w3.org/2000/svg">
<g clip-path="url(#clip0_289_192)">
<path d="M166.742 6.77165L119.306 0.143606C116.509 -0.25133 113.78 0.183672 111.424 1.3971C110.868 1.68328 110.312 2.04387 109.664 2.53611C108.994 3.04552 108.438 3.55493 107.962 4.07579C107.939 4.10441 107.91 4.1273 107.882 4.15592L92.9256 17.246C92.8855 17.2804 92.8454 17.309 92.8053 17.3433L92.3008 17.7325C91.4581 18.3793 90.7875 19.0147 90.2429 19.6843C88.4257 21.9223 87.4626 24.7212 87.4626 27.7834V75.147C87.4626 82.9484 93.8142 90.1832 101.622 91.2764L149.058 97.9044C149.866 98.0189 150.651 98.0704 151.402 98.0704C154.383 98.0704 156.888 97.2061 158.482 95.5806L176.178 80.264C179.187 77.9344 180.901 74.3285 180.901 70.2647V22.901C180.901 15.0996 174.55 7.86488 166.742 6.77165ZM155.914 93.6403C155.914 93.6403 155.914 93.6403 155.908 93.646C155.764 93.7662 155.644 93.8749 155.552 93.9551C155.403 94.081 155.254 94.2012 155.088 94.2985C154.824 94.453 154.538 94.5847 154.234 94.7049C154.177 94.7278 154.114 94.7564 154.056 94.7793C154.022 94.7907 153.982 94.8022 153.942 94.8136C153.815 94.8594 153.689 94.8938 153.557 94.9338C153.5 94.951 153.443 94.9739 153.386 94.9853C153.322 95.0025 153.259 95.014 153.196 95.0311C153.059 95.0655 152.921 95.0884 152.778 95.117C152.732 95.1284 152.686 95.1399 152.635 95.1456C152.56 95.1571 152.486 95.1742 152.405 95.1857C152.405 95.1857 152.394 95.1857 152.388 95.1857C152.239 95.2086 152.09 95.22 151.935 95.2372C151.855 95.2429 151.78 95.2601 151.7 95.2658C151.672 95.2658 151.637 95.2715 151.608 95.2773C151.586 95.2773 151.557 95.2773 151.528 95.2773C151.368 95.2887 151.201 95.2887 151.041 95.2944C150.949 95.2944 150.863 95.3059 150.777 95.3059C150.749 95.3059 150.72 95.3059 150.686 95.3059C150.485 95.3059 150.284 95.2944 150.078 95.2887C150.009 95.2887 149.94 95.2887 149.872 95.283C149.849 95.283 149.826 95.283 149.803 95.283C149.516 95.2658 149.23 95.2372 148.937 95.1971C148.857 95.1857 148.777 95.1799 148.696 95.1685L101.811 88.6149C95.167 87.6876 89.7613 81.5346 89.7613 74.9066V28.0867C89.7613 25.5511 90.5582 23.2445 92.0658 21.4301C92.1174 21.3785 92.169 21.327 92.2206 21.2755L103.645 11.2762C104.047 10.9271 104.666 11.2132 104.666 11.7398V13.0677V59.8819C104.666 60.1223 104.671 60.3627 104.683 60.6031C104.694 60.7805 104.706 60.9522 104.723 61.1296C104.723 61.1926 104.729 61.2556 104.734 61.3185C105.451 68.4617 111.424 74.8093 118.658 75.8224L165.544 82.376C166.197 82.4676 166.845 82.5134 167.493 82.5134C167.957 82.5134 168.422 82.4848 168.875 82.439C168.875 82.439 158.516 91.3966 155.914 93.6403ZM179.181 22.8381V70.3047C179.181 73.4928 177.926 76.3204 175.696 78.2263L175.685 78.2149L174.894 78.8331C174.836 78.8731 174.779 78.9189 174.716 78.959C174.716 78.959 174.71 78.959 174.704 78.9647C174.704 78.9647 174.693 78.9704 174.693 78.9761C174.624 79.0219 174.55 79.0563 174.481 79.1021C174.418 79.1421 174.349 79.1822 174.286 79.2165C174.16 79.2909 174.034 79.3711 173.908 79.4398C173.908 79.4398 173.896 79.4398 173.896 79.4455C173.833 79.4798 173.77 79.5027 173.707 79.5313C173.621 79.5714 173.535 79.6115 173.449 79.6516C173.317 79.7145 173.185 79.7775 173.053 79.8347C173.053 79.8347 173.042 79.8347 173.036 79.8347C172.99 79.8519 172.945 79.8633 172.899 79.8862C172.79 79.9263 172.675 79.9663 172.566 80.0064C172.429 80.0522 172.297 80.1094 172.159 80.1495C172.159 80.1495 172.148 80.1495 172.142 80.1495C172.125 80.1495 172.102 80.1609 172.085 80.1667C171.941 80.2067 171.792 80.2411 171.649 80.2812C171.511 80.3155 171.374 80.3556 171.231 80.3899C171.053 80.43 170.869 80.4529 170.692 80.4815C170.554 80.5044 170.417 80.533 170.273 80.5502C170.078 80.5731 169.883 80.5788 169.683 80.596C169.551 80.6017 169.425 80.6189 169.293 80.6246C169.075 80.6303 168.857 80.6246 168.634 80.6189C168.519 80.6189 168.404 80.6189 168.296 80.6189C167.963 80.6017 167.625 80.5673 167.287 80.5215L119.748 73.8763C113.012 72.9376 107.532 66.6988 107.532 59.9792V12.5068C107.532 9.94831 108.334 7.61876 109.842 5.78718C109.911 5.71849 109.98 5.64981 110.048 5.5754L111.275 4.49934C111.361 4.42493 111.424 4.33908 111.482 4.2475C112.015 3.84112 112.462 3.54921 112.897 3.32598C114.365 2.57046 116.022 2.18124 117.753 2.18124C118.303 2.18124 118.865 2.22131 119.427 2.30144L166.966 8.94666C173.701 9.89107 179.181 16.1242 179.181 22.8438V22.8381Z" fill="black"/>
<path d="M166.966 8.94035L119.427 2.30086C118.865 2.22073 118.303 2.18066 117.753 2.18066C116.022 2.18066 114.365 2.56988 112.897 3.3254C112.467 3.54863 112.015 3.84054 111.481 4.24692C111.424 4.3385 111.355 4.42436 111.275 4.49876L110.048 5.57482C109.985 5.63778 109.928 5.70074 109.865 5.75798C109.853 5.77515 109.836 5.7866 109.825 5.80377C109.722 5.92969 109.63 6.05561 109.538 6.18725C109.458 6.29601 109.372 6.40476 109.292 6.51923C109.2 6.65088 109.125 6.78824 109.039 6.92561C108.971 7.04009 108.896 7.15456 108.827 7.26903C108.747 7.41213 108.684 7.55522 108.61 7.69831C108.552 7.81851 108.483 7.93298 108.432 8.05891C108.363 8.20772 108.311 8.36226 108.248 8.5168C108.203 8.637 108.145 8.7572 108.105 8.88312C108.048 9.04338 108.008 9.20937 107.962 9.37536C107.927 9.50128 107.887 9.62148 107.853 9.7474C107.807 9.92483 107.778 10.1023 107.744 10.2854C107.721 10.4056 107.692 10.5201 107.669 10.6403C107.635 10.8406 107.618 11.0467 107.595 11.2527C107.583 11.3558 107.566 11.4588 107.561 11.5618C107.538 11.8709 107.526 12.1857 107.526 12.5062V59.9729C107.526 66.6982 113.006 72.9313 119.742 73.87L167.281 80.5152C167.619 80.561 167.957 80.5954 168.29 80.6125C168.404 80.6183 168.519 80.6125 168.628 80.6125C168.846 80.6125 169.069 80.6297 169.287 80.6183C169.419 80.6183 169.545 80.6011 169.677 80.5896C169.872 80.5782 170.073 80.5668 170.267 80.5439C170.405 80.5267 170.543 80.4981 170.686 80.4752C170.869 80.4466 171.047 80.4237 171.225 80.3836C171.368 80.355 171.506 80.3149 171.643 80.2748C171.792 80.2405 171.936 80.2004 172.079 80.1604C172.096 80.1604 172.119 80.1489 172.136 80.1432C172.136 80.1432 172.148 80.1432 172.153 80.1432C172.291 80.1031 172.429 80.0459 172.56 80.0001C172.669 79.96 172.784 79.92 172.893 79.8799C172.939 79.8627 172.985 79.8513 173.031 79.8284C173.031 79.8284 173.042 79.8284 173.048 79.8284C173.185 79.7712 173.311 79.7082 173.443 79.6452C173.529 79.6052 173.615 79.5651 173.701 79.525C173.764 79.4964 173.827 79.4678 173.89 79.4392C173.89 79.4392 173.902 79.4392 173.902 79.4335C174.034 79.3648 174.154 79.2846 174.28 79.2102C174.343 79.1702 174.412 79.1301 174.475 79.0958C174.55 79.05 174.624 79.0099 174.699 78.9641C174.699 78.9641 174.704 78.9641 174.71 78.9584C174.767 78.9183 174.825 78.8725 174.888 78.8325L175.679 78.2143L175.69 78.2258C177.92 76.3198 179.176 73.4923 179.176 70.3042V22.8375C179.176 16.1179 173.695 9.88477 166.96 8.94035H166.966Z" fill="#EEEEEE"/>
<path d="M167.493 82.5185C166.851 82.5185 166.197 82.4727 165.544 82.3812L118.658 75.8275C111.424 74.8144 105.451 68.4668 104.734 61.3237C104.729 61.2607 104.723 61.1977 104.723 61.1348C104.706 60.9573 104.694 60.7856 104.683 60.6082C104.671 60.3678 104.666 60.1274 104.666 59.887V13.0671C104.666 12.0197 103.433 11.4588 102.642 12.1513L101.278 13.3419L92.2893 21.2005C92.1976 21.2921 92.1059 21.3894 92.0142 21.481C91.9225 21.5955 91.8365 21.7157 91.7505 21.8358C91.6702 21.9446 91.5843 22.0533 91.504 22.1678C91.418 22.2937 91.3378 22.4311 91.2575 22.5628C91.1887 22.6772 91.1085 22.7917 91.0454 22.9119C90.9709 23.0493 90.9021 23.1924 90.8333 23.3355C90.776 23.4557 90.7129 23.5701 90.6556 23.6961C90.5925 23.8449 90.5352 23.9994 90.4779 24.1482C90.432 24.2684 90.3804 24.3886 90.3346 24.5145C90.283 24.6748 90.2371 24.8351 90.1913 24.9953C90.1569 25.1213 90.1168 25.2415 90.0824 25.3617C90.0365 25.5334 90.0078 25.7108 89.9734 25.8882C89.9505 26.0084 89.9219 26.1229 89.8989 26.2431C89.8645 26.4377 89.8473 26.638 89.8244 26.8384C89.8129 26.9414 89.7957 27.0444 89.79 27.1474C89.7671 27.4565 89.7556 27.7656 89.7556 28.0804V74.8946C89.7556 81.5226 95.1613 87.6756 101.805 88.6028L148.691 95.1565C148.771 95.1679 148.851 95.1736 148.931 95.1851C149.161 95.2137 149.384 95.2423 149.608 95.2595C149.671 95.2595 149.734 95.2709 149.797 95.2709C149.82 95.2709 149.843 95.2709 149.866 95.2709C149.935 95.2709 150.003 95.2709 150.072 95.2767C150.227 95.2824 150.376 95.2938 150.525 95.2938C150.577 95.2938 150.628 95.2938 150.674 95.2938C150.703 95.2938 150.731 95.2938 150.766 95.2938C150.858 95.2938 150.944 95.2881 151.029 95.2824C151.196 95.2824 151.356 95.2767 151.517 95.2652C151.54 95.2652 151.568 95.2652 151.597 95.2652C151.626 95.2652 151.66 95.2595 151.689 95.2538C151.769 95.248 151.843 95.2366 151.924 95.2251C152.079 95.208 152.228 95.1965 152.377 95.1736C152.377 95.1736 152.388 95.1736 152.394 95.1736C152.468 95.1622 152.549 95.1507 152.623 95.1336C152.675 95.1278 152.721 95.1107 152.766 95.1049C152.91 95.0763 153.047 95.0534 153.185 95.0191C153.248 95.0019 153.311 94.9905 153.374 94.9733C153.431 94.9561 153.489 94.939 153.546 94.9218C153.678 94.8817 153.804 94.8474 153.93 94.8016C153.964 94.7901 154.01 94.7787 154.045 94.7673C154.108 94.7444 154.165 94.7157 154.222 94.6928C154.291 94.6642 154.354 94.6413 154.423 94.607C154.463 94.5898 154.498 94.5726 154.538 94.5555C155.031 94.3094 155.484 93.9946 155.902 93.634C155.902 93.634 155.902 93.634 155.908 93.6282C158.51 91.3845 168.869 82.4269 168.869 82.4269C168.41 82.4727 167.952 82.5014 167.487 82.5014L167.493 82.5185Z" fill="#EEEEEE"/>
<path d="M132.141 65.0899C131.465 64.9812 131 64.7236 130.737 64.3058C130.473 63.8937 130.485 63.4072 130.777 62.852L151.723 21.4524C152.016 20.7599 151.752 20.3477 150.932 20.2161L143.715 19.0542C141.932 18.768 140.31 19.0542 138.842 19.9013C137.375 20.7541 136.154 22.6258 135.185 25.5277L134.096 28.8245C133.953 29.4026 133.614 29.6488 133.081 29.5629C132.359 29.4484 132.049 29.002 132.147 28.2293L133.471 15.5341C133.569 14.4867 133.981 14.0173 134.704 14.1375C135.042 14.189 135.351 14.3608 135.638 14.6355C135.925 14.916 136.418 15.225 137.117 15.5685C137.811 15.9119 138.928 16.2095 140.47 16.4556L156.418 19.0256C157.089 19.1343 157.559 19.3804 157.822 19.7754C158.086 20.1646 158.075 20.6626 157.782 21.2635L136.836 62.6631C136.544 63.3556 136.807 63.7677 137.627 63.8994L145.635 65.1872C146.982 65.4047 148.307 65.4333 149.602 65.2731C150.903 65.1128 152.056 64.5233 153.07 63.5045C154.085 62.4856 154.83 60.8372 155.317 58.5535L156.263 54.0546C156.407 53.4765 156.768 53.2361 157.347 53.3277C158.017 53.4365 158.31 53.8772 158.212 54.6442L157.318 67.5511C157.221 68.5985 156.619 69.0336 155.512 68.8561L132.135 65.0899H132.141Z" fill="black"/>
</g>
<g clip-path="url(#clip1_289_192)">
<path d="M81.6278 39.7808H32.5047C28.7565 39.7808 25.3103 41.0838 22.5746 43.2616H22.5687L22.474 43.339C21.9825 43.7376 21.5147 44.1601 21.0765 44.6123L11.8867 52.9841C11.4722 53.3531 11.0636 53.7101 10.6669 54.0611C8.88457 55.626 7.2799 57.0362 5.90023 58.4345L5.85878 58.4702C2.51917 61.8796 0.5 65.2295 0.5 70.5966H0.505921V119.9C0.505921 128.771 7.68847 135.989 16.5171 135.989H65.6403C69.0806 135.989 72.0057 135.221 74.3269 133.704C75.3512 133.037 76.3164 132.3 77.252 131.526L77.2757 131.55C77.4118 131.419 77.5421 131.294 77.6783 131.163C79.129 129.926 80.4968 128.605 81.8351 127.307L91.8421 117.609C95.383 114.657 97.645 110.201 97.645 105.226V55.87C97.645 46.9983 90.4624 39.7808 81.6337 39.7808H81.6278ZM76.1032 129.39C75.1203 130.229 74.1018 131.014 73.036 131.711C71.1057 132.972 68.6187 133.609 65.6403 133.609H16.5171C8.99115 133.609 2.87444 127.456 2.87444 119.9V70.543C2.88629 66.0566 4.48504 63.2719 7.46938 60.2255L15.4099 53.0317C15.4395 53.002 15.4691 52.9782 15.5046 52.9484L15.4868 52.9306L17.127 51.4371C16.7244 52.8473 16.5053 54.3348 16.5053 55.8759V105.238C16.5053 114.11 23.6878 121.328 32.5165 121.328H81.6397C82.7529 121.328 83.8424 121.215 84.8905 120.994C81.9653 123.797 79.0402 126.599 76.1092 129.396L76.1032 129.39ZM95.2764 105.232C95.2764 109.499 93.3283 113.313 90.2788 115.83C90.2788 115.83 90.267 115.842 90.2611 115.847C87.9103 117.781 84.9023 118.942 81.6337 118.942H32.5047C24.9787 118.942 18.862 112.789 18.862 105.232V55.87C18.862 52.169 20.3364 48.8012 22.7167 46.3319L24.0254 45.1359C26.3583 43.2735 29.3012 42.1549 32.5047 42.1549H81.6278C89.1538 42.1549 95.2705 48.3073 95.2705 55.864V105.226L95.2764 105.232Z" fill="black"/>
<path d="M81.6278 42.1606H32.5047C29.3013 42.1606 26.3584 43.2793 24.0254 45.1417L22.7168 46.3376C20.3305 48.807 18.862 52.1688 18.862 55.8757V105.238C18.862 112.801 24.9846 118.947 32.5047 118.947H81.6278C84.8964 118.947 87.8985 117.787 90.2552 115.853C90.2611 115.847 90.267 115.841 90.273 115.835C93.3224 113.318 95.2705 109.504 95.2705 105.238V55.8698C95.2705 48.3071 89.1479 42.1606 81.6278 42.1606Z" fill="#EEEEEE"/>
<path d="M51.6364 107.904C50.9022 107.904 50.541 107.636 50.541 107.095C50.541 106.655 50.8548 106.357 51.4943 106.214L53.1759 105.923C54.2003 105.726 54.8694 105.459 55.1892 105.113C55.503 104.768 55.6629 104.084 55.6629 103.055V59.8269C55.6629 58.7975 55.503 58.1133 55.1892 57.7682C54.8694 57.423 54.2003 57.1553 53.1759 56.9589L51.4943 56.6674C50.8607 56.5186 50.541 56.2271 50.541 55.7868C50.541 55.2453 50.9081 54.9775 51.6364 54.9775H64.8764C65.6107 54.9775 65.9719 55.2453 65.9719 55.7868C65.9719 56.2271 65.6521 56.5246 65.0185 56.6674L63.3369 56.9589C62.3125 57.1553 61.6434 57.423 61.3237 57.7682C61.0039 58.1133 60.8499 58.7975 60.8499 59.8269V103.055C60.8499 104.084 61.0098 104.768 61.3237 105.113C61.6375 105.459 62.3125 105.726 63.3369 105.923L65.0185 106.214C65.6521 106.363 65.9719 106.655 65.9719 107.095C65.9719 107.636 65.6048 107.904 64.8764 107.904H51.6364Z" fill="black"/>
</g>
<g clip-path="url(#clip2_289_192)">
<path d="M255.658 53.0337C254.544 52.4192 253.287 51.7217 251.953 50.9467L239.701 43.8555C236.861 41.7796 233.189 41.1209 229.29 42.0066L183.541 52.4137C175.452 54.2515 168.874 62.3613 168.874 70.4932V116.417C168.874 119.257 169.663 121.809 171.124 123.857C171.163 123.913 171.207 123.968 171.245 124.029C171.808 124.787 172.464 125.468 173.208 126.072C173.506 126.31 173.82 126.531 174.14 126.736C178.314 129.886 185.515 133.622 193.025 137.514L194.657 138.361C197.508 139.839 200.458 140.619 203.083 140.619C203.965 140.619 204.814 140.531 205.603 140.348L251.346 129.952C259.435 128.114 266.013 120.005 266.013 111.873V65.9484C266.013 58.7686 262.336 56.7315 255.653 53.0337H255.658ZM175.32 124.865C174.565 124.289 173.942 123.747 173.473 123.248C173.346 123.099 173.208 122.961 173.087 122.806C171.78 121.095 171.08 118.892 171.08 116.423V70.4932C171.08 63.3356 176.892 56.1946 184.032 54.5726L229.77 44.1766C230.741 43.9551 231.689 43.85 232.604 43.85C234.926 43.85 237.038 44.5474 238.725 45.9037C240.986 47.7194 242.232 50.5315 242.232 53.8253V99.7494C242.232 106.907 236.42 114.048 229.285 115.67L183.541 126.066C180.465 126.764 177.581 126.337 175.32 124.87V124.865ZM263.808 111.873C263.808 119.03 257.996 126.171 250.861 127.793L205.117 138.189C202.476 138.787 199.03 138.134 195.672 136.39L194.04 135.543C189.645 133.268 184.969 130.843 181.099 128.59C182.053 128.563 183.034 128.441 184.027 128.219L229.77 117.823C237.859 115.986 244.437 107.87 244.437 99.7439V53.8197C244.437 51.921 244.084 50.1496 243.412 48.5664L250.828 52.8565C250.828 52.8565 250.839 52.8621 250.844 52.8676L251.264 53.1112C252.46 53.7976 253.585 54.4231 254.588 54.9767C261.106 58.586 263.808 60.0806 263.808 65.954V111.878V111.873Z" fill="black"/>
<path d="M229.285 115.665C236.426 114.043 242.232 106.902 242.232 99.7442V53.82C242.232 50.5263 240.986 47.7142 238.725 45.8985C237.038 44.5422 234.926 43.8447 232.604 43.8447C231.689 43.8447 230.741 43.9554 229.77 44.1713L184.032 54.5729C176.892 56.1949 171.08 63.3359 171.08 70.4936V116.418C171.08 118.887 171.78 121.09 173.087 122.8C173.208 122.955 173.341 123.099 173.473 123.243C173.942 123.747 174.565 124.284 175.32 124.86C177.581 126.327 180.465 126.758 183.541 126.055L229.285 115.659V115.665Z" fill="#EEEEEE"/>
<path d="M254.594 54.9771C253.59 54.4235 252.465 53.798 251.269 53.1115L250.85 52.8735C250.844 52.8735 250.839 52.868 250.833 52.8624L243.417 48.5723C244.09 50.1499 244.443 51.9214 244.443 53.8256V99.7498C244.443 107.882 237.865 115.991 229.776 117.829L184.032 128.225C183.04 128.452 182.058 128.569 181.104 128.596C184.975 130.844 189.651 133.268 194.045 135.549L195.677 136.396C199.035 138.14 205.123 138.195 205.123 138.195L250.866 127.799C258.007 126.177 263.813 119.031 263.813 111.878V65.9488C263.813 60.0754 261.117 58.5808 254.594 54.9715V54.9771Z" fill="#EEEEEE"/>
<path d="M195.518 109.681C194.779 109.864 194.249 109.841 193.924 109.603C193.599 109.371 193.571 108.967 193.836 108.386L212.732 65.6887C212.98 64.9968 212.66 64.7643 211.762 64.9857L203.855 66.9509C201.903 67.438 200.171 68.3293 198.66 69.6246C197.15 70.9255 196.003 72.9682 195.214 75.7526L194.338 78.9191C194.233 79.456 193.891 79.7937 193.312 79.9376C192.523 80.1314 192.143 79.8933 192.182 79.218L192.463 68.1909C192.474 67.283 192.876 66.735 193.665 66.5357C194.034 66.4416 194.387 66.4527 194.724 66.5689C195.06 66.6796 195.622 66.7405 196.405 66.7405C197.188 66.7405 198.423 66.5357 200.111 66.115L217.584 61.775C218.323 61.5923 218.853 61.6089 219.172 61.8248C219.492 62.0407 219.525 62.4559 219.266 63.0704L200.37 105.767C200.122 106.459 200.442 106.692 201.34 106.47L210.118 104.289C211.596 103.924 213.03 103.409 214.419 102.75C215.809 102.091 217.005 101.134 218.009 99.8827C219.012 98.6317 219.674 96.9654 219.988 94.884L220.606 90.782C220.711 90.2451 221.08 89.8963 221.714 89.7413C222.453 89.5587 222.801 89.8022 222.767 90.4831L222.971 101.51C222.96 102.418 222.348 103.021 221.135 103.32L195.512 109.681H195.518Z" fill="black"/>
</g>
<g clip-path="url(#clip3_289_192)">
<path d="M346.423 26.3935C346.299 24.6633 346.121 22.892 345.587 21.1617C345.072 19.4784 343.987 17.1617 341.764 15.7012L341.752 15.7129L319.376 2.14667V2.1584C317.111 0.791806 314.456 0 311.617 0H262.383C258.992 0 255.797 1.10266 253.142 3.19655L251.767 4.42238L251.713 4.47517C249.004 7.23769 247.511 10.8683 247.511 14.6983V63.3914C247.511 69.5733 251.393 74.8755 256.876 77.0456L269.834 84.7115C274.161 87.2746 278.849 88.9286 283.763 89.6383C284.445 89.738 288.659 89.7438 289.602 89.7438H331.622C335.036 89.7438 338.379 88.5649 341.023 86.4241L341.076 86.3831C344.52 83.5736 346.494 79.4445 346.494 75.0456V26.3935H346.417H346.423ZM249.882 63.321V14.6865C249.882 11.4841 251.121 8.44593 253.379 6.12916L254.636 5.00304C256.858 3.26107 259.526 2.34609 262.353 2.34609H311.504C318.392 2.34609 323.976 7.87114 323.976 14.6865V63.321C323.976 64.5761 323.786 65.8078 323.418 66.975C322.808 68.9223 321.711 70.7053 320.2 72.154L320.176 72.1306L319.358 72.8989C317.141 74.6819 314.355 75.6614 311.504 75.6614H262.353C255.465 75.6614 249.882 70.1364 249.882 63.321ZM344.129 74.9283C344.129 75.3975 344.105 75.8608 344.052 76.3183C344.028 76.5471 343.993 76.7758 343.957 77.0046C343.88 77.4562 343.779 77.9019 343.649 78.3418C342.949 80.7583 341.515 82.9343 339.476 84.5883L339.464 84.6C338.344 85.5033 337.075 86.2012 335.73 86.6763C335.392 86.7936 335.054 86.8992 334.704 86.9872C333.667 87.257 332.594 87.3977 331.509 87.3977H289.074C289.015 87.3977 288.944 87.3977 288.861 87.3977C288.535 87.3977 288.055 87.3977 287.504 87.3977C287.231 87.3977 286.94 87.3977 286.65 87.3977C286.502 87.3977 286.354 87.3977 286.205 87.3977C286.057 87.3977 285.909 87.3977 285.767 87.3977C285.476 87.3977 285.198 87.3919 284.937 87.386C284.801 87.386 284.676 87.386 284.552 87.3801C284.072 87.3684 283.698 87.3508 283.52 87.3274C282.939 87.2453 282.364 87.1455 281.789 87.0341C280.64 86.8112 279.507 86.5297 278.393 86.1954C277.273 85.8611 276.176 85.474 275.091 85.0282C273.467 84.3596 271.885 83.5736 270.343 82.6645L262.484 78.0192H311.326C314.409 78.0192 317.438 77.0691 319.974 75.3036L320.004 75.333L320.846 74.6526C324.343 71.8138 326.347 67.6378 326.347 63.1861V14.0238C326.347 11.7129 325.807 9.53099 324.853 7.57787L340.638 17.1265C341.082 17.4491 341.497 17.8538 341.865 18.323C342.108 18.6397 342.339 18.9799 342.54 19.3552C342.641 19.5429 342.742 19.7306 342.831 19.93C343.015 20.3289 343.175 20.7512 343.311 21.1911C343.382 21.4139 343.441 21.6427 343.501 21.8714C343.613 22.3289 343.702 22.7981 343.779 23.2732C343.963 24.458 344.04 25.6721 344.123 26.8627H344.129V74.9224V74.9283Z" fill="black"/>
<path d="M343.779 23.273C343.708 22.7979 343.613 22.3346 343.501 21.8712C343.441 21.6425 343.382 21.4137 343.311 21.1908C343.175 20.7509 343.015 20.3286 342.831 19.9298C342.742 19.7304 342.641 19.5368 342.54 19.355C342.333 18.9855 342.108 18.6395 341.865 18.3227C341.497 17.8535 341.082 17.4488 340.638 17.1204L324.853 7.57178C325.807 9.51903 326.347 11.7068 326.347 14.0177V63.1624C326.347 67.6141 324.343 71.796 320.846 74.6289L320.004 75.3093L319.974 75.28C317.438 77.0454 314.414 77.9956 311.326 77.9956H262.484L270.344 82.6408C271.879 83.5499 273.467 84.3359 275.091 85.0045C276.176 85.4503 277.279 85.8374 278.393 86.1717C279.513 86.506 280.646 86.7875 281.79 87.0104C282.364 87.1219 282.939 87.2216 283.52 87.3037C283.698 87.3271 284.072 87.3447 284.552 87.3565C284.676 87.3565 284.801 87.3623 284.937 87.3623C285.198 87.3623 285.476 87.3682 285.767 87.3741C285.909 87.3741 286.057 87.3741 286.206 87.3741C286.354 87.3741 286.502 87.3741 286.65 87.3741C286.941 87.3741 287.231 87.3741 287.504 87.3741C288.049 87.3741 288.535 87.3741 288.861 87.3741C288.944 87.3741 289.015 87.3741 289.074 87.3741H331.509C332.594 87.3741 333.667 87.2333 334.704 86.9635C335.048 86.8755 335.392 86.7699 335.73 86.6526C337.075 86.1776 338.344 85.4796 339.464 84.5763L339.476 84.5646C341.515 82.9106 342.949 80.7346 343.649 78.3181C343.773 77.8783 343.88 77.4325 343.957 76.9809C343.999 76.7521 344.028 76.5293 344.052 76.2946C344.105 75.8372 344.129 75.3738 344.129 74.9046V26.8625H344.123C344.046 25.6719 343.963 24.4578 343.779 23.273Z" fill="#EEEEEE"/>
<path d="M319.358 72.899L320.176 72.1307L320.2 72.1541C321.705 70.7054 322.802 68.9224 323.418 66.9751C323.786 65.8079 323.976 64.5762 323.976 63.3211V14.6866C323.976 7.87124 318.392 2.34619 311.504 2.34619H262.353C259.526 2.34619 256.858 3.26703 254.636 5.00314L253.379 6.12926C251.121 8.44603 249.882 11.4784 249.882 14.6866V63.3211C249.882 70.1365 255.465 75.6615 262.353 75.6615H311.504C314.355 75.6615 317.141 74.682 319.358 72.899Z" fill="#EEEEEE"/>
<path d="M277.794 65.9837C277.059 65.9837 276.698 65.7198 276.698 65.186C276.698 64.6523 277.012 64.3649 277.652 64.318L280.948 63.8136C281.926 63.6669 282.584 63.4147 282.928 63.0511C283.271 62.6874 283.437 62.0012 283.437 60.9865V43.8835C283.437 42.8219 283.194 41.7838 282.702 40.7691L271.938 18.4519C271.594 17.6308 271.203 17.0032 270.764 16.5692C270.326 16.1351 269.691 15.8184 268.862 15.6249L268.204 15.4782C267.522 15.3316 267.178 15.0207 267.178 14.5339C267.178 14.0471 267.546 13.8066 268.275 13.8066H280.8C281.481 13.8066 281.825 14.0706 281.825 14.6043C281.825 15.138 281.41 15.4254 280.58 15.4724L279.187 15.619C278.357 15.6659 277.771 15.9357 277.427 16.4167C277.083 16.8976 277.16 17.6484 277.646 18.663L286.656 37.6488C286.852 37.989 287.095 38.1532 287.391 38.1532C287.687 38.1532 287.93 37.9831 288.126 37.6488L296.768 20.188C297.403 18.9328 297.563 17.9064 297.243 17.1088C296.922 16.3111 296.205 15.8419 295.085 15.6952L293.473 15.4782C292.643 15.3316 292.228 15.0442 292.228 14.6102C292.228 14.0764 292.572 13.8125 293.253 13.8125H303.65C304.385 13.8125 304.747 14.053 304.747 14.5398C304.747 15.0266 304.403 15.3375 303.721 15.4841L302.986 15.6307C302.305 15.7774 301.706 16.1879 301.19 16.8624C300.68 17.5369 300.005 18.6748 299.175 20.2701L289.578 39.3262C289.234 40.0007 288.991 40.6459 288.843 41.2442C288.695 41.8483 288.624 42.5345 288.624 43.3087V60.9924C288.624 62.0071 288.808 62.6933 289.175 63.0569C289.543 63.4206 290.189 63.6728 291.113 63.8194L294.409 64.3238C295.043 64.3708 295.364 64.664 295.364 65.1919C295.364 65.7198 294.996 65.9896 294.267 65.9896H277.788L277.794 65.9837Z" fill="black"/>
</g>
<defs>
<clipPath id="clip0_289_192">
<rect width="93.4385" height="98.0642" fill="white" transform="translate(87.4626)"/>
</clipPath>
<clipPath id="clip1_289_192">
<rect width="97.139" height="96.2139" fill="white" transform="translate(0.5 39.7808)"/>
</clipPath>
<clipPath id="clip2_289_192">
<rect width="97.139" height="98.9893" fill="white" transform="translate(168.874 41.6309)"/>
</clipPath>
<clipPath id="clip3_289_192">
<rect width="98.9893" height="89.738" fill="white" transform="translate(247.511)"/>
</clipPath>
</defs>
</svg>
